<?xml version="1.0" encoding="UTF-8" standalone="no"?>
<!DOCTYPE svg PUBLIC "-//W3C//DTD SVG 1.1//EN"
 "http://www.w3.org/Graphics/SVG/1.1/DTD/svg11.dtd">
<!-- Generated by graphviz version 2.38.0 (20140413.2041)
 -->
<!-- Title: Tree Pages: 1 -->
<svg width="1664pt" height="790pt"
 viewBox="0.00 0.00 1664.00 790.00" xmlns="http://www.w3.org/2000/svg" xmlns:xlink="http://www.w3.org/1999/xlink">
<g id="graph0" class="graph" transform="scale(1 1) rotate(0) translate(4 786)">
<title>Tree</title>
<polygon fill="white" stroke="none" points="-4,4 -4,-786 1660,-786 1660,4 -4,4"/>
<!-- 0 -->
<g id="node1" class="node"><title>0</title>
<path fill="#e58139" fill-opacity="0.317647" stroke="black" d="M700,-782C700,-782 578,-782 578,-782 572,-782 566,-776 566,-770 566,-770 566,-711 566,-711 566,-705 572,-699 578,-699 578,-699 700,-699 700,-699 706,-699 712,-705 712,-711 712,-711 712,-770 712,-770 712,-776 706,-782 700,-782"/>
<text text-anchor="start" x="608.5" y="-766.8" font-family="Helvetica,sans-Serif" font-size="14.00">Sex ≤ 0.5</text>
<text text-anchor="start" x="601.5" y="-751.8" font-family="Helvetica,sans-Serif" font-size="14.00">gini = 0.482</text>
<text text-anchor="start" x="591.5" y="-736.8" font-family="Helvetica,sans-Serif" font-size="14.00">samples = 836</text>
<text text-anchor="start" x="582" y="-721.8" font-family="Helvetica,sans-Serif" font-size="14.00">value = [497, 339]</text>
<text text-anchor="start" x="574" y="-706.8" font-family="Helvetica,sans-Serif" font-size="14.00">class = Not Survived</text>
</g>
<!-- 1 -->
<g id="node2" class="node"><title>1</title>
<path fill="#399de5" fill-opacity="0.815686" stroke="black" d="M608,-663C608,-663 510,-663 510,-663 504,-663 498,-657 498,-651 498,-651 498,-592 498,-592 498,-586 504,-580 510,-580 510,-580 608,-580 608,-580 614,-580 620,-586 620,-592 620,-592 620,-651 620,-651 620,-657 614,-663 608,-663"/>
<text text-anchor="start" x="519.5" y="-647.8" font-family="Helvetica,sans-Serif" font-size="14.00">Pclass ≤ 2.5</text>
<text text-anchor="start" x="521.5" y="-632.8" font-family="Helvetica,sans-Serif" font-size="14.00">gini = 0.262</text>
<text text-anchor="start" x="511.5" y="-617.8" font-family="Helvetica,sans-Serif" font-size="14.00">samples = 316</text>
<text text-anchor="start" x="506" y="-602.8" font-family="Helvetica,sans-Serif" font-size="14.00">value = [49, 267]</text>
<text text-anchor="start" x="507" y="-587.8" font-family="Helvetica,sans-Serif" font-size="14.00">class = Survived</text>
</g>
<!-- 0&#45;&gt;1 -->
<g id="edge1" class="edge"><title>0&#45;&gt;1</title>
<path fill="none" stroke="black" d="M611.244,-698.907C605.163,-690.014 598.664,-680.509 592.389,-671.331"/>
<polygon fill="black" stroke="black" points="595.24,-669.3 586.707,-663.021 589.462,-673.251 595.24,-669.3"/>
<text text-anchor="middle" x="582.092" y="-683.891" font-family="Helvetica,sans-Serif" font-size="14.00">True</text>
</g>
<!-- 18 -->
<g id="node19" class="node"><title>18</title>
<path fill="#e58139" fill-opacity="0.839216" stroke="black" d="M781,-663C781,-663 659,-663 659,-663 653,-663 647,-657 647,-651 647,-651 647,-592 647,-592 647,-586 653,-580 659,-580 659,-580 781,-580 781,-580 787,-580 793,-586 793,-592 793,-592 793,-651 793,-651 793,-657 787,-663 781,-663"/>
<text text-anchor="start" x="685" y="-647.8" font-family="Helvetica,sans-Serif" font-size="14.00">Age ≤ 12.5</text>
<text text-anchor="start" x="682.5" y="-632.8" font-family="Helvetica,sans-Serif" font-size="14.00">gini = 0.239</text>
<text text-anchor="start" x="672.5" y="-617.8" font-family="Helvetica,sans-Serif" font-size="14.00">samples = 520</text>
<text text-anchor="start" x="667" y="-602.8" font-family="Helvetica,sans-Serif" font-size="14.00">value = [448, 72]</text>
<text text-anchor="start" x="655" y="-587.8" font-family="Helvetica,sans-Serif" font-size="14.00">class = Not Survived</text>
</g>
<!-- 0&#45;&gt;18 -->
<g id="edge18" class="edge"><title>0&#45;&gt;18</title>
<path fill="none" stroke="black" d="M667.103,-698.907C673.26,-690.014 679.84,-680.509 686.194,-671.331"/>
<polygon fill="black" stroke="black" points="689.133,-673.235 691.947,-663.021 683.377,-669.251 689.133,-673.235"/>
<text text-anchor="middle" x="696.419" y="-683.918" font-family="Helvetica,sans-Serif" font-size="14.00">False</text>
</g>
<!-- 2 -->
<g id="node3" class="node"><title>2</title>
<path fill="#399de5" fill-opacity="0.972549" stroke="black" d="M384,-544C384,-544 288,-544 288,-544 282,-544 276,-538 276,-532 276,-532 276,-473 276,-473 276,-467 282,-461 288,-461 288,-461 384,-461 384,-461 390,-461 396,-467 396,-473 396,-473 396,-532 396,-532 396,-538 390,-544 384,-544"/>
<text text-anchor="start" x="305" y="-528.8" font-family="Helvetica,sans-Serif" font-size="14.00">Age ≤ 2.5</text>
<text text-anchor="start" x="298.5" y="-513.8" font-family="Helvetica,sans-Serif" font-size="14.00">gini = 0.052</text>
<text text-anchor="start" x="288.5" y="-498.8" font-family="Helvetica,sans-Serif" font-size="14.00">samples = 188</text>
<text text-anchor="start" x="287.5" y="-483.8" font-family="Helvetica,sans-Serif" font-size="14.00">value = [5, 183]</text>
<text text-anchor="start" x="284" y="-468.8" font-family="Helvetica,sans-Serif" font-size="14.00">class = Survived</text>
</g>
<!-- 1&#45;&gt;2 -->
<g id="edge2" class="edge"><title>1&#45;&gt;2</title>
<path fill="none" stroke="black" d="M497.769,-588.374C469.141,-573.354 434.92,-555.4 405.342,-539.881"/>
<polygon fill="black" stroke="black" points="406.804,-536.696 396.322,-535.149 403.551,-542.894 406.804,-536.696"/>
</g>
<!-- 11 -->
<g id="node12" class="node"><title>11</title>
<path fill="#399de5" fill-opacity="0.474510" stroke="black" d="M607,-544C607,-544 511,-544 511,-544 505,-544 499,-538 499,-532 499,-532 499,-473 499,-473 499,-467 505,-461 511,-461 511,-461 607,-461 607,-461 613,-461 619,-467 619,-473 619,-473 619,-532 619,-532 619,-538 613,-544 607,-544"/>
<text text-anchor="start" x="514" y="-528.8" font-family="Helvetica,sans-Serif" font-size="14.00">Fare ≤ 20.825</text>
<text text-anchor="start" x="521.5" y="-513.8" font-family="Helvetica,sans-Serif" font-size="14.00">gini = 0.451</text>
<text text-anchor="start" x="511.5" y="-498.8" font-family="Helvetica,sans-Serif" font-size="14.00">samples = 128</text>
<text text-anchor="start" x="510.5" y="-483.8" font-family="Helvetica,sans-Serif" font-size="14.00">value = [44, 84]</text>
<text text-anchor="start" x="507" y="-468.8" font-family="Helvetica,sans-Serif" font-size="14.00">class = Survived</text>
</g>
<!-- 1&#45;&gt;11 -->
<g id="edge11" class="edge"><title>1&#45;&gt;11</title>
<path fill="none" stroke="black" d="M559,-579.907C559,-571.649 559,-562.864 559,-554.302"/>
<polygon fill="black" stroke="black" points="562.5,-554.021 559,-544.021 555.5,-554.021 562.5,-554.021"/>
</g>
<!-- 3 -->
<g id="node4" class="node"><title>3</title>
<path fill="#399de5" fill-opacity="0.666667" stroke="black" d="M246,-417.5C246,-417.5 150,-417.5 150,-417.5 144,-417.5 138,-411.5 138,-405.5 138,-405.5 138,-361.5 138,-361.5 138,-355.5 144,-349.5 150,-349.5 150,-349.5 246,-349.5 246,-349.5 252,-349.5 258,-355.5 258,-361.5 258,-361.5 258,-405.5 258,-405.5 258,-411.5 252,-417.5 246,-417.5"/>
<text text-anchor="start" x="160.5" y="-402.3" font-family="Helvetica,sans-Serif" font-size="14.00">gini = 0.375</text>
<text text-anchor="start" x="158.5" y="-387.3" font-family="Helvetica,sans-Serif" font-size="14.00">samples = 4</text>
<text text-anchor="start" x="157.5" y="-372.3" font-family="Helvetica,sans-Serif" font-size="14.00">value = [1, 3]</text>
<text text-anchor="start" x="146" y="-357.3" font-family="Helvetica,sans-Serif" font-size="14.00">class = Survived</text>
</g>
<!-- 2&#45;&gt;3 -->
<g id="edge3" class="edge"><title>2&#45;&gt;3</title>
<path fill="none" stroke="black" d="M288.122,-460.907C274.195,-449.101 258.999,-436.217 245.12,-424.45"/>
<polygon fill="black" stroke="black" points="247.011,-421.464 237.12,-417.667 242.484,-426.803 247.011,-421.464"/>
</g>
<!-- 4 -->
<g id="node5" class="node"><title>4</title>
<path fill="#399de5" fill-opacity="0.976471" stroke="black" d="M384,-425C384,-425 288,-425 288,-425 282,-425 276,-419 276,-413 276,-413 276,-354 276,-354 276,-348 282,-342 288,-342 288,-342 384,-342 384,-342 390,-342 396,-348 396,-354 396,-354 396,-413 396,-413 396,-419 390,-425 384,-425"/>
<text text-anchor="start" x="291" y="-409.8" font-family="Helvetica,sans-Serif" font-size="14.00">Fare ≤ 28.856</text>
<text text-anchor="start" x="298.5" y="-394.8" font-family="Helvetica,sans-Serif" font-size="14.00">gini = 0.043</text>
<text text-anchor="start" x="288.5" y="-379.8" font-family="Helvetica,sans-Serif" font-size="14.00">samples = 184</text>
<text text-anchor="start" x="287.5" y="-364.8" font-family="Helvetica,sans-Serif" font-size="14.00">value = [4, 180]</text>
<text text-anchor="start" x="284" y="-349.8" font-family="Helvetica,sans-Serif" font-size="14.00">class = Survived</text>
</g>
<!-- 2&#45;&gt;4 -->
<g id="edge4" class="edge"><title>2&#45;&gt;4</title>
<path fill="none" stroke="black" d="M336,-460.907C336,-452.649 336,-443.864 336,-435.302"/>
<polygon fill="black" stroke="black" points="339.5,-435.021 336,-425.021 332.5,-435.021 339.5,-435.021"/>
</g>
<!-- 5 -->
<g id="node6" class="node"><title>5</title>
<path fill="#399de5" fill-opacity="0.941176" stroke="black" d="M246,-306C246,-306 150,-306 150,-306 144,-306 138,-300 138,-294 138,-294 138,-235 138,-235 138,-229 144,-223 150,-223 150,-223 246,-223 246,-223 252,-223 258,-229 258,-235 258,-235 258,-294 258,-294 258,-300 252,-306 246,-306"/>
<text text-anchor="start" x="163" y="-290.8" font-family="Helvetica,sans-Serif" font-size="14.00">Age ≤ 43.0</text>
<text text-anchor="start" x="160.5" y="-275.8" font-family="Helvetica,sans-Serif" font-size="14.00">gini = 0.106</text>
<text text-anchor="start" x="154.5" y="-260.8" font-family="Helvetica,sans-Serif" font-size="14.00">samples = 71</text>
<text text-anchor="start" x="153.5" y="-245.8" font-family="Helvetica,sans-Serif" font-size="14.00">value = [4, 67]</text>
<text text-anchor="start" x="146" y="-230.8" font-family="Helvetica,sans-Serif" font-size="14.00">class = Survived</text>
</g>
<!-- 4&#45;&gt;5 -->
<g id="edge5" class="edge"><title>4&#45;&gt;5</title>
<path fill="none" stroke="black" d="M288.122,-341.907C276.989,-332.469 265.046,-322.343 253.612,-312.649"/>
<polygon fill="black" stroke="black" points="255.685,-309.818 245.794,-306.021 251.158,-315.157 255.685,-309.818"/>
</g>
<!-- 10 -->
<g id="node11" class="node"><title>10</title>
<path fill="#399de5" stroke="black" d="M384,-298.5C384,-298.5 288,-298.5 288,-298.5 282,-298.5 276,-292.5 276,-286.5 276,-286.5 276,-242.5 276,-242.5 276,-236.5 282,-230.5 288,-230.5 288,-230.5 384,-230.5 384,-230.5 390,-230.5 396,-236.5 396,-242.5 396,-242.5 396,-286.5 396,-286.5 396,-292.5 390,-298.5 384,-298.5"/>
<text text-anchor="start" x="307" y="-283.3" font-family="Helvetica,sans-Serif" font-size="14.00">gini = 0.0</text>
<text text-anchor="start" x="288.5" y="-268.3" font-family="Helvetica,sans-Serif" font-size="14.00">samples = 113</text>
<text text-anchor="start" x="287.5" y="-253.3" font-family="Helvetica,sans-Serif" font-size="14.00">value = [0, 113]</text>
<text text-anchor="start" x="284" y="-238.3" font-family="Helvetica,sans-Serif" font-size="14.00">class = Survived</text>
</g>
<!-- 4&#45;&gt;10 -->
<g id="edge10" class="edge"><title>4&#45;&gt;10</title>
<path fill="none" stroke="black" d="M336,-341.907C336,-331.204 336,-319.615 336,-308.776"/>
<polygon fill="black" stroke="black" points="339.5,-308.667 336,-298.667 332.5,-308.667 339.5,-308.667"/>
</g>
<!-- 6 -->
<g id="node7" class="node"><title>6</title>
<path fill="#399de5" fill-opacity="0.980392" stroke="black" d="M177,-187C177,-187 81,-187 81,-187 75,-187 69,-181 69,-175 69,-175 69,-116 69,-116 69,-110 75,-104 81,-104 81,-104 177,-104 177,-104 183,-104 189,-110 189,-116 189,-116 189,-175 189,-175 189,-181 183,-187 177,-187"/>
<text text-anchor="start" x="88" y="-171.8" font-family="Helvetica,sans-Serif" font-size="14.00">Fare ≤ 13.25</text>
<text text-anchor="start" x="91.5" y="-156.8" font-family="Helvetica,sans-Serif" font-size="14.00">gini = 0.035</text>
<text text-anchor="start" x="85.5" y="-141.8" font-family="Helvetica,sans-Serif" font-size="14.00">samples = 56</text>
<text text-anchor="start" x="84.5" y="-126.8" font-family="Helvetica,sans-Serif" font-size="14.00">value = [1, 55]</text>
<text text-anchor="start" x="77" y="-111.8" font-family="Helvetica,sans-Serif" font-size="14.00">class = Survived</text>
</g>
<!-- 5&#45;&gt;6 -->
<g id="edge6" class="edge"><title>5&#45;&gt;6</title>
<path fill="none" stroke="black" d="M174.061,-222.907C168.923,-214.195 163.439,-204.897 158.129,-195.893"/>
<polygon fill="black" stroke="black" points="160.992,-193.857 152.897,-187.021 154.962,-197.412 160.992,-193.857"/>
</g>
<!-- 9 -->
<g id="node10" class="node"><title>9</title>
<path fill="#399de5" fill-opacity="0.749020" stroke="black" d="M315,-179.5C315,-179.5 219,-179.5 219,-179.5 213,-179.5 207,-173.5 207,-167.5 207,-167.5 207,-123.5 207,-123.5 207,-117.5 213,-111.5 219,-111.5 219,-111.5 315,-111.5 315,-111.5 321,-111.5 327,-117.5 327,-123.5 327,-123.5 327,-167.5 327,-167.5 327,-173.5 321,-179.5 315,-179.5"/>
<text text-anchor="start" x="233.5" y="-164.3" font-family="Helvetica,sans-Serif" font-size="14.00">gini = 0.32</text>
<text text-anchor="start" x="223.5" y="-149.3" font-family="Helvetica,sans-Serif" font-size="14.00">samples = 15</text>
<text text-anchor="start" x="222.5" y="-134.3" font-family="Helvetica,sans-Serif" font-size="14.00">value = [3, 12]</text>
<text text-anchor="start" x="215" y="-119.3" font-family="Helvetica,sans-Serif" font-size="14.00">class = Survived</text>
</g>
<!-- 5&#45;&gt;9 -->
<g id="edge9" class="edge"><title>5&#45;&gt;9</title>
<path fill="none" stroke="black" d="M221.939,-222.907C228.512,-211.763 235.65,-199.658 242.267,-188.439"/>
<polygon fill="black" stroke="black" points="245.375,-190.059 247.44,-179.667 239.345,-186.503 245.375,-190.059"/>
</g>
<!-- 7 -->
<g id="node8" class="node"><title>7</title>
<path fill="#399de5" fill-opacity="0.949020" stroke="black" d="M108,-68C108,-68 12,-68 12,-68 6,-68 0,-62 0,-56 0,-56 0,-12 0,-12 0,-6 6,-0 12,-0 12,-0 108,-0 108,-0 114,-0 120,-6 120,-12 120,-12 120,-56 120,-56 120,-62 114,-68 108,-68"/>
<text text-anchor="start" x="22.5" y="-52.8" font-family="Helvetica,sans-Serif" font-size="14.00">gini = 0.095</text>
<text text-anchor="start" x="16.5" y="-37.8" font-family="Helvetica,sans-Serif" font-size="14.00">samples = 20</text>
<text text-anchor="start" x="15.5" y="-22.8" font-family="Helvetica,sans-Serif" font-size="14.00">value = [1, 19]</text>
<text text-anchor="start" x="8" y="-7.8" font-family="Helvetica,sans-Serif" font-size="14.00">class = Survived</text>
</g>
<!-- 6&#45;&gt;7 -->
<g id="edge7" class="edge"><title>6&#45;&gt;7</title>
<path fill="none" stroke="black" d="M103.307,-103.726C97.7895,-94.9703 91.9499,-85.7032 86.4059,-76.9051"/>
<polygon fill="black" stroke="black" points="89.2757,-74.8941 80.9833,-68.2996 83.3534,-78.6259 89.2757,-74.8941"/>
</g>
<!-- 8 -->
<g id="node9" class="node"><title>8</title>
<path fill="#399de5" stroke="black" d="M246,-68C246,-68 150,-68 150,-68 144,-68 138,-62 138,-56 138,-56 138,-12 138,-12 138,-6 144,-0 150,-0 150,-0 246,-0 246,-0 252,-0 258,-6 258,-12 258,-12 258,-56 258,-56 258,-62 252,-68 246,-68"/>
<text text-anchor="start" x="169" y="-52.8" font-family="Helvetica,sans-Serif" font-size="14.00">gini = 0.0</text>
<text text-anchor="start" x="154.5" y="-37.8" font-family="Helvetica,sans-Serif" font-size="14.00">samples = 36</text>
<text text-anchor="start" x="153.5" y="-22.8" font-family="Helvetica,sans-Serif" font-size="14.00">value = [0, 36]</text>
<text text-anchor="start" x="146" y="-7.8" font-family="Helvetica,sans-Serif" font-size="14.00">class = Survived</text>
</g>
<!-- 6&#45;&gt;8 -->
<g id="edge8" class="edge"><title>6&#45;&gt;8</title>
<path fill="none" stroke="black" d="M154.693,-103.726C160.211,-94.9703 166.05,-85.7032 171.594,-76.9051"/>
<polygon fill="black" stroke="black" points="174.647,-78.6259 177.017,-68.2996 168.724,-74.8941 174.647,-78.6259"/>
</g>
<!-- 12 -->
<g id="node13" class="node"><title>12</title>
<path fill="#399de5" fill-opacity="0.662745" stroke="black" d="M590,-425C590,-425 494,-425 494,-425 488,-425 482,-419 482,-413 482,-413 482,-354 482,-354 482,-348 488,-342 494,-342 494,-342 590,-342 590,-342 596,-342 602,-348 602,-354 602,-354 602,-413 602,-413 602,-419 596,-425 590,-425"/>
<text text-anchor="start" x="501" y="-409.8" font-family="Helvetica,sans-Serif" font-size="14.00">Fare ≤ 7.887</text>
<text text-anchor="start" x="504.5" y="-394.8" font-family="Helvetica,sans-Serif" font-size="14.00">gini = 0.377</text>
<text text-anchor="start" x="494.5" y="-379.8" font-family="Helvetica,sans-Serif" font-size="14.00">samples = 107</text>
<text text-anchor="start" x="493.5" y="-364.8" font-family="Helvetica,sans-Serif" font-size="14.00">value = [27, 80]</text>
<text text-anchor="start" x="490" y="-349.8" font-family="Helvetica,sans-Serif" font-size="14.00">class = Survived</text>
</g>
<!-- 11&#45;&gt;12 -->
<g id="edge12" class="edge"><title>11&#45;&gt;12</title>
<path fill="none" stroke="black" d="M553.102,-460.907C551.889,-452.558 550.597,-443.671 549.341,-435.02"/>
<polygon fill="black" stroke="black" points="552.789,-434.414 547.888,-425.021 545.862,-435.42 552.789,-434.414"/>
</g>
<!-- 17 -->
<g id="node18" class="node"><title>17</title>
<path fill="#e58139" fill-opacity="0.764706" stroke="black" d="M754,-417.5C754,-417.5 632,-417.5 632,-417.5 626,-417.5 620,-411.5 620,-405.5 620,-405.5 620,-361.5 620,-361.5 620,-355.5 626,-349.5 632,-349.5 632,-349.5 754,-349.5 754,-349.5 760,-349.5 766,-355.5 766,-361.5 766,-361.5 766,-405.5 766,-405.5 766,-411.5 760,-417.5 754,-417.5"/>
<text text-anchor="start" x="655.5" y="-402.3" font-family="Helvetica,sans-Serif" font-size="14.00">gini = 0.308</text>
<text text-anchor="start" x="649.5" y="-387.3" font-family="Helvetica,sans-Serif" font-size="14.00">samples = 21</text>
<text text-anchor="start" x="648.5" y="-372.3" font-family="Helvetica,sans-Serif" font-size="14.00">value = [17, 4]</text>
<text text-anchor="start" x="628" y="-357.3" font-family="Helvetica,sans-Serif" font-size="14.00">class = Not Survived</text>
</g>
<!-- 11&#45;&gt;17 -->
<g id="edge17" class="edge"><title>11&#45;&gt;17</title>
<path fill="none" stroke="black" d="M605.491,-460.907C619.013,-449.101 633.769,-436.217 647.246,-424.45"/>
<polygon fill="black" stroke="black" points="649.783,-426.881 655.014,-417.667 645.179,-421.608 649.783,-426.881"/>
</g>
<!-- 13 -->
<g id="node14" class="node"><title>13</title>
<path fill="#399de5" fill-opacity="0.847059" stroke="black" d="M522,-298.5C522,-298.5 426,-298.5 426,-298.5 420,-298.5 414,-292.5 414,-286.5 414,-286.5 414,-242.5 414,-242.5 414,-236.5 420,-230.5 426,-230.5 426,-230.5 522,-230.5 522,-230.5 528,-230.5 534,-236.5 534,-242.5 534,-242.5 534,-286.5 534,-286.5 534,-292.5 528,-298.5 522,-298.5"/>
<text text-anchor="start" x="436.5" y="-283.3" font-family="Helvetica,sans-Serif" font-size="14.00">gini = 0.229</text>
<text text-anchor="start" x="430.5" y="-268.3" font-family="Helvetica,sans-Serif" font-size="14.00">samples = 38</text>
<text text-anchor="start" x="429.5" y="-253.3" font-family="Helvetica,sans-Serif" font-size="14.00">value = [5, 33]</text>
<text text-anchor="start" x="422" y="-238.3" font-family="Helvetica,sans-Serif" font-size="14.00">class = Survived</text>
</g>
<!-- 12&#45;&gt;13 -->
<g id="edge13" class="edge"><title>12&#45;&gt;13</title>
<path fill="none" stroke="black" d="M518.408,-341.907C511.93,-330.763 504.895,-318.658 498.375,-307.439"/>
<polygon fill="black" stroke="black" points="501.328,-305.554 493.277,-298.667 495.275,-309.072 501.328,-305.554"/>
</g>
<!-- 14 -->
<g id="node15" class="node"><title>14</title>
<path fill="#399de5" fill-opacity="0.533333" stroke="black" d="M660,-306C660,-306 564,-306 564,-306 558,-306 552,-300 552,-294 552,-294 552,-235 552,-235 552,-229 558,-223 564,-223 564,-223 660,-223 660,-223 666,-223 672,-229 672,-235 672,-235 672,-294 672,-294 672,-300 666,-306 660,-306"/>
<text text-anchor="start" x="567" y="-290.8" font-family="Helvetica,sans-Serif" font-size="14.00">Fare ≤ 10.825</text>
<text text-anchor="start" x="574.5" y="-275.8" font-family="Helvetica,sans-Serif" font-size="14.00">gini = 0.434</text>
<text text-anchor="start" x="568.5" y="-260.8" font-family="Helvetica,sans-Serif" font-size="14.00">samples = 69</text>
<text text-anchor="start" x="563.5" y="-245.8" font-family="Helvetica,sans-Serif" font-size="14.00">value = [22, 47]</text>
<text text-anchor="start" x="560" y="-230.8" font-family="Helvetica,sans-Serif" font-size="14.00">class = Survived</text>
</g>
<!-- 12&#45;&gt;14 -->
<g id="edge14" class="edge"><title>12&#45;&gt;14</title>
<path fill="none" stroke="black" d="M566.286,-341.907C571.553,-333.105 577.178,-323.703 582.617,-314.612"/>
<polygon fill="black" stroke="black" points="585.626,-316.399 587.757,-306.021 579.619,-312.805 585.626,-316.399"/>
</g>
<!-- 15 -->
<g id="node16" class="node"><title>15</title>
<path fill="#399de5" fill-opacity="0.070588" stroke="black" d="M522,-179.5C522,-179.5 426,-179.5 426,-179.5 420,-179.5 414,-173.5 414,-167.5 414,-167.5 414,-123.5 414,-123.5 414,-117.5 420,-111.5 426,-111.5 426,-111.5 522,-111.5 522,-111.5 528,-111.5 534,-117.5 534,-123.5 534,-123.5 534,-167.5 534,-167.5 534,-173.5 528,-179.5 522,-179.5"/>
<text text-anchor="start" x="436.5" y="-164.3" font-family="Helvetica,sans-Serif" font-size="14.00">gini = 0.499</text>
<text text-anchor="start" x="430.5" y="-149.3" font-family="Helvetica,sans-Serif" font-size="14.00">samples = 27</text>
<text text-anchor="start" x="425.5" y="-134.3" font-family="Helvetica,sans-Serif" font-size="14.00">value = [13, 14]</text>
<text text-anchor="start" x="422" y="-119.3" font-family="Helvetica,sans-Serif" font-size="14.00">class = Survived</text>
</g>
<!-- 14&#45;&gt;15 -->
<g id="edge15" class="edge"><title>14&#45;&gt;15</title>
<path fill="none" stroke="black" d="M564.122,-222.907C550.195,-211.101 534.999,-198.217 521.12,-186.45"/>
<polygon fill="black" stroke="black" points="523.011,-183.464 513.12,-179.667 518.484,-188.803 523.011,-183.464"/>
</g>
<!-- 16 -->
<g id="node17" class="node"><title>16</title>
<path fill="#399de5" fill-opacity="0.725490" stroke="black" d="M660,-179.5C660,-179.5 564,-179.5 564,-179.5 558,-179.5 552,-173.5 552,-167.5 552,-167.5 552,-123.5 552,-123.5 552,-117.5 558,-111.5 564,-111.5 564,-111.5 660,-111.5 660,-111.5 666,-111.5 672,-117.5 672,-123.5 672,-123.5 672,-167.5 672,-167.5 672,-173.5 666,-179.5 660,-179.5"/>
<text text-anchor="start" x="574.5" y="-164.3" font-family="Helvetica,sans-Serif" font-size="14.00">gini = 0.337</text>
<text text-anchor="start" x="568.5" y="-149.3" font-family="Helvetica,sans-Serif" font-size="14.00">samples = 42</text>
<text text-anchor="start" x="567.5" y="-134.3" font-family="Helvetica,sans-Serif" font-size="14.00">value = [9, 33]</text>
<text text-anchor="start" x="560" y="-119.3" font-family="Helvetica,sans-Serif" font-size="14.00">class = Survived</text>
</g>
<!-- 14&#45;&gt;16 -->
<g id="edge16" class="edge"><title>14&#45;&gt;16</title>
<path fill="none" stroke="black" d="M612,-222.907C612,-212.204 612,-200.615 612,-189.776"/>
<polygon fill="black" stroke="black" points="615.5,-189.667 612,-179.667 608.5,-189.667 615.5,-189.667"/>
</g>
<!-- 19 -->
<g id="node20" class="node"><title>19</title>
<path fill="#e58139" fill-opacity="0.192157" stroke="black" d="M781,-536.5C781,-536.5 659,-536.5 659,-536.5 653,-536.5 647,-530.5 647,-524.5 647,-524.5 647,-480.5 647,-480.5 647,-474.5 653,-468.5 659,-468.5 659,-468.5 781,-468.5 781,-468.5 787,-468.5 793,-474.5 793,-480.5 793,-480.5 793,-524.5 793,-524.5 793,-530.5 787,-536.5 781,-536.5"/>
<text text-anchor="start" x="682.5" y="-521.3" font-family="Helvetica,sans-Serif" font-size="14.00">gini = 0.494</text>
<text text-anchor="start" x="676.5" y="-506.3" font-family="Helvetica,sans-Serif" font-size="14.00">samples = 38</text>
<text text-anchor="start" x="671.5" y="-491.3" font-family="Helvetica,sans-Serif" font-size="14.00">value = [21, 17]</text>
<text text-anchor="start" x="655" y="-476.3" font-family="Helvetica,sans-Serif" font-size="14.00">class = Not Survived</text>
</g>
<!-- 18&#45;&gt;19 -->
<g id="edge19" class="edge"><title>18&#45;&gt;19</title>
<path fill="none" stroke="black" d="M720,-579.907C720,-569.204 720,-557.615 720,-546.776"/>
<polygon fill="black" stroke="black" points="723.5,-546.667 720,-536.667 716.5,-546.667 723.5,-546.667"/>
</g>
<!-- 20 -->
<g id="node21" class="node"><title>20</title>
<path fill="#e58139" fill-opacity="0.870588" stroke="black" d="M979,-544C979,-544 857,-544 857,-544 851,-544 845,-538 845,-532 845,-532 845,-473 845,-473 845,-467 851,-461 857,-461 857,-461 979,-461 979,-461 985,-461 991,-467 991,-473 991,-473 991,-532 991,-532 991,-538 985,-544 979,-544"/>
<text text-anchor="start" x="878.5" y="-528.8" font-family="Helvetica,sans-Serif" font-size="14.00">Pclass ≤ 1.5</text>
<text text-anchor="start" x="880.5" y="-513.8" font-family="Helvetica,sans-Serif" font-size="14.00">gini = 0.202</text>
<text text-anchor="start" x="870.5" y="-498.8" font-family="Helvetica,sans-Serif" font-size="14.00">samples = 482</text>
<text text-anchor="start" x="865" y="-483.8" font-family="Helvetica,sans-Serif" font-size="14.00">value = [427, 55]</text>
<text text-anchor="start" x="853" y="-468.8" font-family="Helvetica,sans-Serif" font-size="14.00">class = Not Survived</text>
</g>
<!-- 18&#45;&gt;20 -->
<g id="edge20" class="edge"><title>18&#45;&gt;20</title>
<path fill="none" stroke="black" d="M788.695,-579.907C805.435,-570.016 823.455,-559.368 840.57,-549.254"/>
<polygon fill="black" stroke="black" points="842.598,-552.121 849.426,-544.021 839.036,-546.095 842.598,-552.121"/>
</g>
<!-- 21 -->
<g id="node22" class="node"><title>21</title>
<path fill="#e58139" fill-opacity="0.635294" stroke="black" d="M979,-425C979,-425 857,-425 857,-425 851,-425 845,-419 845,-413 845,-413 845,-354 845,-354 845,-348 851,-342 857,-342 857,-342 979,-342 979,-342 985,-342 991,-348 991,-354 991,-354 991,-413 991,-413 991,-419 985,-425 979,-425"/>
<text text-anchor="start" x="883" y="-409.8" font-family="Helvetica,sans-Serif" font-size="14.00">Age ≤ 38.5</text>
<text text-anchor="start" x="880.5" y="-394.8" font-family="Helvetica,sans-Serif" font-size="14.00">gini = 0.391</text>
<text text-anchor="start" x="870.5" y="-379.8" font-family="Helvetica,sans-Serif" font-size="14.00">samples = 120</text>
<text text-anchor="start" x="869.5" y="-364.8" font-family="Helvetica,sans-Serif" font-size="14.00">value = [88, 32]</text>
<text text-anchor="start" x="853" y="-349.8" font-family="Helvetica,sans-Serif" font-size="14.00">class = Not Survived</text>
</g>
<!-- 20&#45;&gt;21 -->
<g id="edge21" class="edge"><title>20&#45;&gt;21</title>
<path fill="none" stroke="black" d="M918,-460.907C918,-452.649 918,-443.864 918,-435.302"/>
<polygon fill="black" stroke="black" points="921.5,-435.021 918,-425.021 914.5,-435.021 921.5,-435.021"/>
</g>
<!-- 28 -->
<g id="node29" class="node"><title>28</title>
<path fill="#e58139" fill-opacity="0.933333" stroke="black" d="M1152,-425C1152,-425 1030,-425 1030,-425 1024,-425 1018,-419 1018,-413 1018,-413 1018,-354 1018,-354 1018,-348 1024,-342 1030,-342 1030,-342 1152,-342 1152,-342 1158,-342 1164,-348 1164,-354 1164,-354 1164,-413 1164,-413 1164,-419 1158,-425 1152,-425"/>
<text text-anchor="start" x="1050" y="-409.8" font-family="Helvetica,sans-Serif" font-size="14.00">Fare ≤ 3.119</text>
<text text-anchor="start" x="1053.5" y="-394.8" font-family="Helvetica,sans-Serif" font-size="14.00">gini = 0.119</text>
<text text-anchor="start" x="1043.5" y="-379.8" font-family="Helvetica,sans-Serif" font-size="14.00">samples = 362</text>
<text text-anchor="start" x="1038" y="-364.8" font-family="Helvetica,sans-Serif" font-size="14.00">value = [339, 23]</text>
<text text-anchor="start" x="1026" y="-349.8" font-family="Helvetica,sans-Serif" font-size="14.00">class = Not Survived</text>
</g>
<!-- 20&#45;&gt;28 -->
<g id="edge28" class="edge"><title>20&#45;&gt;28</title>
<path fill="none" stroke="black" d="M978.021,-460.907C992.38,-451.197 1007.81,-440.758 1022.52,-430.811"/>
<polygon fill="black" stroke="black" points="1024.76,-433.522 1031.08,-425.021 1020.84,-427.724 1024.76,-433.522"/>
</g>
<!-- 22 -->
<g id="node23" class="node"><title>22</title>
<path fill="#e58139" fill-opacity="0.321569" stroke="black" d="M824,-298.5C824,-298.5 702,-298.5 702,-298.5 696,-298.5 690,-292.5 690,-286.5 690,-286.5 690,-242.5 690,-242.5 690,-236.5 696,-230.5 702,-230.5 702,-230.5 824,-230.5 824,-230.5 830,-230.5 836,-236.5 836,-242.5 836,-242.5 836,-286.5 836,-286.5 836,-292.5 830,-298.5 824,-298.5"/>
<text text-anchor="start" x="725.5" y="-283.3" font-family="Helvetica,sans-Serif" font-size="14.00">gini = 0.482</text>
<text text-anchor="start" x="719.5" y="-268.3" font-family="Helvetica,sans-Serif" font-size="14.00">samples = 47</text>
<text text-anchor="start" x="714.5" y="-253.3" font-family="Helvetica,sans-Serif" font-size="14.00">value = [28, 19]</text>
<text text-anchor="start" x="698" y="-238.3" font-family="Helvetica,sans-Serif" font-size="14.00">class = Not Survived</text>
</g>
<!-- 21&#45;&gt;22 -->
<g id="edge22" class="edge"><title>21&#45;&gt;22</title>
<path fill="none" stroke="black" d="M864.224,-341.907C848.29,-329.88 830.875,-316.735 815.052,-304.791"/>
<polygon fill="black" stroke="black" points="817.029,-301.898 806.939,-298.667 812.812,-307.485 817.029,-301.898"/>
</g>
<!-- 23 -->
<g id="node24" class="node"><title>23</title>
<path fill="#e58139" fill-opacity="0.784314" stroke="black" d="M988,-306C988,-306 866,-306 866,-306 860,-306 854,-300 854,-294 854,-294 854,-235 854,-235 854,-229 860,-223 866,-223 866,-223 988,-223 988,-223 994,-223 1000,-229 1000,-235 1000,-235 1000,-294 1000,-294 1000,-300 994,-306 988,-306"/>
<text text-anchor="start" x="882" y="-290.8" font-family="Helvetica,sans-Serif" font-size="14.00">Fare ≤ 26.144</text>
<text text-anchor="start" x="889.5" y="-275.8" font-family="Helvetica,sans-Serif" font-size="14.00">gini = 0.293</text>
<text text-anchor="start" x="883.5" y="-260.8" font-family="Helvetica,sans-Serif" font-size="14.00">samples = 73</text>
<text text-anchor="start" x="878.5" y="-245.8" font-family="Helvetica,sans-Serif" font-size="14.00">value = [60, 13]</text>
<text text-anchor="start" x="862" y="-230.8" font-family="Helvetica,sans-Serif" font-size="14.00">class = Not Survived</text>
</g>
<!-- 21&#45;&gt;23 -->
<g id="edge23" class="edge"><title>21&#45;&gt;23</title>
<path fill="none" stroke="black" d="M921.123,-341.907C921.765,-333.558 922.448,-324.671 923.114,-316.02"/>
<polygon fill="black" stroke="black" points="926.606,-316.26 923.883,-306.021 919.626,-315.723 926.606,-316.26"/>
</g>
<!-- 24 -->
<g id="node25" class="node"><title>24</title>
<path fill="#e58139" stroke="black" d="M824,-179.5C824,-179.5 702,-179.5 702,-179.5 696,-179.5 690,-173.5 690,-167.5 690,-167.5 690,-123.5 690,-123.5 690,-117.5 696,-111.5 702,-111.5 702,-111.5 824,-111.5 824,-111.5 830,-111.5 836,-117.5 836,-123.5 836,-123.5 836,-167.5 836,-167.5 836,-173.5 830,-179.5 824,-179.5"/>
<text text-anchor="start" x="734" y="-164.3" font-family="Helvetica,sans-Serif" font-size="14.00">gini = 0.0</text>
<text text-anchor="start" x="723.5" y="-149.3" font-family="Helvetica,sans-Serif" font-size="14.00">samples = 7</text>
<text text-anchor="start" x="722.5" y="-134.3" font-family="Helvetica,sans-Serif" font-size="14.00">value = [7, 0]</text>
<text text-anchor="start" x="698" y="-119.3" font-family="Helvetica,sans-Serif" font-size="14.00">class = Not Survived</text>
</g>
<!-- 23&#45;&gt;24 -->
<g id="edge24" class="edge"><title>23&#45;&gt;24</title>
<path fill="none" stroke="black" d="M870.101,-222.907C853.242,-210.88 834.816,-197.735 818.074,-185.791"/>
<polygon fill="black" stroke="black" points="819.664,-182.625 809.49,-179.667 815.598,-188.324 819.664,-182.625"/>
</g>
<!-- 25 -->
<g id="node26" class="node"><title>25</title>
<path fill="#e58139" fill-opacity="0.752941" stroke="black" d="M988,-187C988,-187 866,-187 866,-187 860,-187 854,-181 854,-175 854,-175 854,-116 854,-116 854,-110 860,-104 866,-104 866,-104 988,-104 988,-104 994,-104 1000,-110 1000,-116 1000,-116 1000,-175 1000,-175 1000,-181 994,-187 988,-187"/>
<text text-anchor="start" x="878" y="-171.8" font-family="Helvetica,sans-Serif" font-size="14.00">Fare ≤ 134.075</text>
<text text-anchor="start" x="889.5" y="-156.8" font-family="Helvetica,sans-Serif" font-size="14.00">gini = 0.316</text>
<text text-anchor="start" x="883.5" y="-141.8" font-family="Helvetica,sans-Serif" font-size="14.00">samples = 66</text>
<text text-anchor="start" x="878.5" y="-126.8" font-family="Helvetica,sans-Serif" font-size="14.00">value = [53, 13]</text>
<text text-anchor="start" x="862" y="-111.8" font-family="Helvetica,sans-Serif" font-size="14.00">class = Not Survived</text>
</g>
<!-- 23&#45;&gt;25 -->
<g id="edge25" class="edge"><title>23&#45;&gt;25</title>
<path fill="none" stroke="black" d="M927,-222.907C927,-214.649 927,-205.864 927,-197.302"/>
<polygon fill="black" stroke="black" points="930.5,-197.021 927,-187.021 923.5,-197.021 930.5,-197.021"/>
</g>
<!-- 26 -->
<g id="node27" class="node"><title>26</title>
<path fill="#e58139" fill-opacity="0.717647" stroke="black" d="M824,-68C824,-68 702,-68 702,-68 696,-68 690,-62 690,-56 690,-56 690,-12 690,-12 690,-6 696,-0 702,-0 702,-0 824,-0 824,-0 830,-0 836,-6 836,-12 836,-12 836,-56 836,-56 836,-62 830,-68 824,-68"/>
<text text-anchor="start" x="725.5" y="-52.8" font-family="Helvetica,sans-Serif" font-size="14.00">gini = 0.344</text>
<text text-anchor="start" x="719.5" y="-37.8" font-family="Helvetica,sans-Serif" font-size="14.00">samples = 59</text>
<text text-anchor="start" x="714.5" y="-22.8" font-family="Helvetica,sans-Serif" font-size="14.00">value = [46, 13]</text>
<text text-anchor="start" x="698" y="-7.8" font-family="Helvetica,sans-Serif" font-size="14.00">class = Not Survived</text>
</g>
<!-- 25&#45;&gt;26 -->
<g id="edge26" class="edge"><title>25&#45;&gt;26</title>
<path fill="none" stroke="black" d="M865.932,-103.726C851.24,-93.9161 835.586,-83.4644 821.036,-73.7496"/>
<polygon fill="black" stroke="black" points="822.872,-70.7673 812.612,-68.1252 818.985,-76.5889 822.872,-70.7673"/>
</g>
<!-- 27 -->
<g id="node28" class="node"><title>27</title>
<path fill="#e58139" stroke="black" d="M988,-68C988,-68 866,-68 866,-68 860,-68 854,-62 854,-56 854,-56 854,-12 854,-12 854,-6 860,-0 866,-0 866,-0 988,-0 988,-0 994,-0 1000,-6 1000,-12 1000,-12 1000,-56 1000,-56 1000,-62 994,-68 988,-68"/>
<text text-anchor="start" x="898" y="-52.8" font-family="Helvetica,sans-Serif" font-size="14.00">gini = 0.0</text>
<text text-anchor="start" x="887.5" y="-37.8" font-family="Helvetica,sans-Serif" font-size="14.00">samples = 7</text>
<text text-anchor="start" x="886.5" y="-22.8" font-family="Helvetica,sans-Serif" font-size="14.00">value = [7, 0]</text>
<text text-anchor="start" x="862" y="-7.8" font-family="Helvetica,sans-Serif" font-size="14.00">class = Not Survived</text>
</g>
<!-- 25&#45;&gt;27 -->
<g id="edge27" class="edge"><title>25&#45;&gt;27</title>
<path fill="none" stroke="black" d="M927,-103.726C927,-95.5175 927,-86.8595 927,-78.56"/>
<polygon fill="black" stroke="black" points="930.5,-78.2996 927,-68.2996 923.5,-78.2996 930.5,-78.2996"/>
</g>
<!-- 29 -->
<g id="node30" class="node"><title>29</title>
<path fill="none" stroke="black" d="M1152,-298.5C1152,-298.5 1030,-298.5 1030,-298.5 1024,-298.5 1018,-292.5 1018,-286.5 1018,-286.5 1018,-242.5 1018,-242.5 1018,-236.5 1024,-230.5 1030,-230.5 1030,-230.5 1152,-230.5 1152,-230.5 1158,-230.5 1164,-236.5 1164,-242.5 1164,-242.5 1164,-286.5 1164,-286.5 1164,-292.5 1158,-298.5 1152,-298.5"/>
<text text-anchor="start" x="1062" y="-283.3" font-family="Helvetica,sans-Serif" font-size="14.00">gini = 0.5</text>
<text text-anchor="start" x="1051.5" y="-268.3" font-family="Helvetica,sans-Serif" font-size="14.00">samples = 2</text>
<text text-anchor="start" x="1050.5" y="-253.3" font-family="Helvetica,sans-Serif" font-size="14.00">value = [1, 1]</text>
<text text-anchor="start" x="1026" y="-238.3" font-family="Helvetica,sans-Serif" font-size="14.00">class = Not Survived</text>
</g>
<!-- 28&#45;&gt;29 -->
<g id="edge29" class="edge"><title>28&#45;&gt;29</title>
<path fill="none" stroke="black" d="M1091,-341.907C1091,-331.204 1091,-319.615 1091,-308.776"/>
<polygon fill="black" stroke="black" points="1094.5,-308.667 1091,-298.667 1087.5,-308.667 1094.5,-308.667"/>
</g>
<!-- 30 -->
<g id="node31" class="node"><title>30</title>
<path fill="#e58139" fill-opacity="0.933333" stroke="black" d="M1316,-306C1316,-306 1194,-306 1194,-306 1188,-306 1182,-300 1182,-294 1182,-294 1182,-235 1182,-235 1182,-229 1188,-223 1194,-223 1194,-223 1316,-223 1316,-223 1322,-223 1328,-229 1328,-235 1328,-235 1328,-294 1328,-294 1328,-300 1322,-306 1316,-306"/>
<text text-anchor="start" x="1217.5" y="-290.8" font-family="Helvetica,sans-Serif" font-size="14.00">SibSp ≤ 0.5</text>
<text text-anchor="start" x="1217.5" y="-275.8" font-family="Helvetica,sans-Serif" font-size="14.00">gini = 0.115</text>
<text text-anchor="start" x="1207.5" y="-260.8" font-family="Helvetica,sans-Serif" font-size="14.00">samples = 360</text>
<text text-anchor="start" x="1202" y="-245.8" font-family="Helvetica,sans-Serif" font-size="14.00">value = [338, 22]</text>
<text text-anchor="start" x="1190" y="-230.8" font-family="Helvetica,sans-Serif" font-size="14.00">class = Not Survived</text>
</g>
<!-- 28&#45;&gt;30 -->
<g id="edge30" class="edge"><title>28&#45;&gt;30</title>
<path fill="none" stroke="black" d="M1147.9,-341.907C1161.38,-332.288 1175.87,-321.953 1189.69,-312.09"/>
<polygon fill="black" stroke="black" points="1192.09,-314.678 1198.2,-306.021 1188.03,-308.979 1192.09,-314.678"/>
</g>
<!-- 31 -->
<g id="node32" class="node"><title>31</title>
<path fill="#e58139" fill-opacity="0.921569" stroke="black" d="M1316,-187C1316,-187 1194,-187 1194,-187 1188,-187 1182,-181 1182,-175 1182,-175 1182,-116 1182,-116 1182,-110 1188,-104 1194,-104 1194,-104 1316,-104 1316,-104 1322,-104 1328,-110 1328,-116 1328,-116 1328,-175 1328,-175 1328,-181 1322,-187 1316,-187"/>
<text text-anchor="start" x="1215.5" y="-171.8" font-family="Helvetica,sans-Serif" font-size="14.00">Pclass ≤ 2.5</text>
<text text-anchor="start" x="1217.5" y="-156.8" font-family="Helvetica,sans-Serif" font-size="14.00">gini = 0.136</text>
<text text-anchor="start" x="1207.5" y="-141.8" font-family="Helvetica,sans-Serif" font-size="14.00">samples = 287</text>
<text text-anchor="start" x="1202" y="-126.8" font-family="Helvetica,sans-Serif" font-size="14.00">value = [266, 21]</text>
<text text-anchor="start" x="1190" y="-111.8" font-family="Helvetica,sans-Serif" font-size="14.00">class = Not Survived</text>
</g>
<!-- 30&#45;&gt;31 -->
<g id="edge31" class="edge"><title>30&#45;&gt;31</title>
<path fill="none" stroke="black" d="M1255,-222.907C1255,-214.649 1255,-205.864 1255,-197.302"/>
<polygon fill="black" stroke="black" points="1258.5,-197.021 1255,-187.021 1251.5,-197.021 1258.5,-197.021"/>
</g>
<!-- 34 -->
<g id="node35" class="node"><title>34</title>
<path fill="#e58139" fill-opacity="0.984314" stroke="black" d="M1480,-187C1480,-187 1358,-187 1358,-187 1352,-187 1346,-181 1346,-175 1346,-175 1346,-116 1346,-116 1346,-110 1352,-104 1358,-104 1358,-104 1480,-104 1480,-104 1486,-104 1492,-110 1492,-116 1492,-116 1492,-175 1492,-175 1492,-181 1486,-187 1480,-187"/>
<text text-anchor="start" x="1384" y="-171.8" font-family="Helvetica,sans-Serif" font-size="14.00">Age ≤ 31.5</text>
<text text-anchor="start" x="1381.5" y="-156.8" font-family="Helvetica,sans-Serif" font-size="14.00">gini = 0.027</text>
<text text-anchor="start" x="1375.5" y="-141.8" font-family="Helvetica,sans-Serif" font-size="14.00">samples = 73</text>
<text text-anchor="start" x="1374.5" y="-126.8" font-family="Helvetica,sans-Serif" font-size="14.00">value = [72, 1]</text>
<text text-anchor="start" x="1354" y="-111.8" font-family="Helvetica,sans-Serif" font-size="14.00">class = Not Survived</text>
</g>
<!-- 30&#45;&gt;34 -->
<g id="edge34" class="edge"><title>30&#45;&gt;34</title>
<path fill="none" stroke="black" d="M1311.9,-222.907C1325.38,-213.288 1339.87,-202.953 1353.69,-193.09"/>
<polygon fill="black" stroke="black" points="1356.09,-195.678 1362.2,-187.021 1352.03,-189.979 1356.09,-195.678"/>
</g>
<!-- 32 -->
<g id="node33" class="node"><title>32</title>
<path fill="#e58139" fill-opacity="0.960784" stroke="black" d="M1152,-68C1152,-68 1030,-68 1030,-68 1024,-68 1018,-62 1018,-56 1018,-56 1018,-12 1018,-12 1018,-6 1024,-0 1030,-0 1030,-0 1152,-0 1152,-0 1158,-0 1164,-6 1164,-12 1164,-12 1164,-56 1164,-56 1164,-62 1158,-68 1152,-68"/>
<text text-anchor="start" x="1057.5" y="-52.8" font-family="Helvetica,sans-Serif" font-size="14.00">gini = 0.07</text>
<text text-anchor="start" x="1047.5" y="-37.8" font-family="Helvetica,sans-Serif" font-size="14.00">samples = 82</text>
<text text-anchor="start" x="1046.5" y="-22.8" font-family="Helvetica,sans-Serif" font-size="14.00">value = [79, 3]</text>
<text text-anchor="start" x="1026" y="-7.8" font-family="Helvetica,sans-Serif" font-size="14.00">class = Not Survived</text>
</g>
<!-- 31&#45;&gt;32 -->
<g id="edge32" class="edge"><title>31&#45;&gt;32</title>
<path fill="none" stroke="black" d="M1193.93,-103.726C1179.24,-93.9161 1163.59,-83.4644 1149.04,-73.7496"/>
<polygon fill="black" stroke="black" points="1150.87,-70.7673 1140.61,-68.1252 1146.99,-76.5889 1150.87,-70.7673"/>
</g>
<!-- 33 -->
<g id="node34" class="node"><title>33</title>
<path fill="#e58139" fill-opacity="0.901961" stroke="black" d="M1316,-68C1316,-68 1194,-68 1194,-68 1188,-68 1182,-62 1182,-56 1182,-56 1182,-12 1182,-12 1182,-6 1188,-0 1194,-0 1194,-0 1316,-0 1316,-0 1322,-0 1328,-6 1328,-12 1328,-12 1328,-56 1328,-56 1328,-62 1322,-68 1316,-68"/>
<text text-anchor="start" x="1221.5" y="-52.8" font-family="Helvetica,sans-Serif" font-size="14.00">gini = 0.16</text>
<text text-anchor="start" x="1207.5" y="-37.8" font-family="Helvetica,sans-Serif" font-size="14.00">samples = 205</text>
<text text-anchor="start" x="1202" y="-22.8" font-family="Helvetica,sans-Serif" font-size="14.00">value = [187, 18]</text>
<text text-anchor="start" x="1190" y="-7.8" font-family="Helvetica,sans-Serif" font-size="14.00">class = Not Survived</text>
</g>
<!-- 31&#45;&gt;33 -->
<g id="edge33" class="edge"><title>31&#45;&gt;33</title>
<path fill="none" stroke="black" d="M1255,-103.726C1255,-95.5175 1255,-86.8595 1255,-78.56"/>
<polygon fill="black" stroke="black" points="1258.5,-78.2996 1255,-68.2996 1251.5,-78.2996 1258.5,-78.2996"/>
</g>
<!-- 35 -->
<g id="node36" class="node"><title>35</title>
<path fill="#e58139" stroke="black" d="M1480,-68C1480,-68 1358,-68 1358,-68 1352,-68 1346,-62 1346,-56 1346,-56 1346,-12 1346,-12 1346,-6 1352,-0 1358,-0 1358,-0 1480,-0 1480,-0 1486,-0 1492,-6 1492,-12 1492,-12 1492,-56 1492,-56 1492,-62 1486,-68 1480,-68"/>
<text text-anchor="start" x="1390" y="-52.8" font-family="Helvetica,sans-Serif" font-size="14.00">gini = 0.0</text>
<text text-anchor="start" x="1375.5" y="-37.8" font-family="Helvetica,sans-Serif" font-size="14.00">samples = 46</text>
<text text-anchor="start" x="1374.5" y="-22.8" font-family="Helvetica,sans-Serif" font-size="14.00">value = [46, 0]</text>
<text text-anchor="start" x="1354" y="-7.8" font-family="Helvetica,sans-Serif" font-size="14.00">class = Not Survived</text>
</g>
<!-- 34&#45;&gt;35 -->
<g id="edge35" class="edge"><title>34&#45;&gt;35</title>
<path fill="none" stroke="black" d="M1419,-103.726C1419,-95.5175 1419,-86.8595 1419,-78.56"/>
<polygon fill="black" stroke="black" points="1422.5,-78.2996 1419,-68.2996 1415.5,-78.2996 1422.5,-78.2996"/>
</g>
<!-- 36 -->
<g id="node37" class="node"><title>36</title>
<path fill="#e58139" fill-opacity="0.960784" stroke="black" d="M1644,-68C1644,-68 1522,-68 1522,-68 1516,-68 1510,-62 1510,-56 1510,-56 1510,-12 1510,-12 1510,-6 1516,-0 1522,-0 1522,-0 1644,-0 1644,-0 1650,-0 1656,-6 1656,-12 1656,-12 1656,-56 1656,-56 1656,-62 1650,-68 1644,-68"/>
<text text-anchor="start" x="1545.5" y="-52.8" font-family="Helvetica,sans-Serif" font-size="14.00">gini = 0.071</text>
<text text-anchor="start" x="1539.5" y="-37.8" font-family="Helvetica,sans-Serif" font-size="14.00">samples = 27</text>
<text text-anchor="start" x="1538.5" y="-22.8" font-family="Helvetica,sans-Serif" font-size="14.00">value = [26, 1]</text>
<text text-anchor="start" x="1518" y="-7.8" font-family="Helvetica,sans-Serif" font-size="14.00">class = Not Survived</text>
</g>
<!-- 34&#45;&gt;36 -->
<g id="edge36" class="edge"><title>34&#45;&gt;36</title>
<path fill="none" stroke="black" d="M1480.07,-103.726C1494.76,-93.9161 1510.41,-83.4644 1524.96,-73.7496"/>
<polygon fill="black" stroke="black" points="1527.01,-76.5889 1533.39,-68.1252 1523.13,-70.7673 1527.01,-76.5889"/>
</g>
</g>
</svg>
